<svg width="984" height="168" viewBox="0 0 984 168" fill="none" xmlns="http://www.w3.org/2000/svg">
<path d="M502.95 33L506.761 66.0553L529.9 71.5L506.761 76.9447L502.95 110L499.139 76.9447L476 71.5L499.139 66.0553L502.95 33Z" fill="white"/>
<path d="M27.9 39.55C27.75 55.6 17.1 75.85 16.35 94.3C15.6 119.05 32.85 130.45 50.85 130.45C59.85 130.45 72.9 127.6 73.95 112H75.45C74.7 135.4 62.7 145.6 46.8 145.6C31.5 145.6 22.8 136 15.3 136C13.5 136 11.7 136.6 10.05 137.95C3.6 127.75 4.65 113.2 7.2 100.75C12.75 74.05 24.9 58.75 24.9 39.55V33.55C24.9 26.35 21 21.55 14.55 21.55V20.05H39.6L64.2 97.15L88.65 20.05H115.5V21.55C108.9 21.55 105 26.35 105 33.55V110.5C105 117.7 108.9 122.5 115.5 122.5V124H78.3V122.5C84.9 122.5 88.65 117.7 88.65 110.5V29.8L58.8 124H55.5L27.9 37.3V39.55ZM147.491 124V122.5C154.091 122.5 157.991 117.7 157.991 110.5V71.8L139.541 33.55C135.941 26.2 128.891 21.55 122.291 21.55V20.05H161.141V21.55C154.691 21.55 154.091 26.2 157.691 33.55L172.691 64.6L187.841 33.55C191.591 26.05 191.891 21.55 185.441 21.55V20.05H209.591V21.55C202.991 21.55 195.041 26.05 191.291 33.55L174.191 68.2V110.5C174.191 117.7 178.091 122.5 184.691 122.5V124H147.491ZM213.231 125.5L208.731 90.55H210.231C212.931 103.9 221.631 122.5 241.431 122.5C252.681 122.5 261.081 116.35 261.081 104.95C261.081 76.3 208.131 79.3 208.131 46C208.131 30.85 219.081 18.55 245.181 18.55C254.481 18.55 260.181 20.05 262.731 20.05C263.931 20.05 264.531 19.75 264.531 18.85V18.55H266.031L270.531 53.5H269.031C266.331 40.15 257.631 21.55 239.781 21.55C229.581 21.55 222.381 27.55 222.381 38.05C222.381 66.55 275.331 63.25 275.331 97C275.331 113.2 263.031 125.5 234.981 125.5C225.081 125.5 219.231 124 216.531 124C215.331 124 214.731 124.3 214.731 125.2V125.5H213.231ZM305.343 23.05H299.343C284.643 23.05 282.243 32.35 277.893 44.05H276.393L279.993 18.55H281.493C281.793 19.6 282.693 20.05 283.593 20.05H343.443C344.343 20.05 345.243 19.6 345.543 18.55H347.043L350.643 44.05H349.143C344.793 32.35 342.243 23.05 327.543 23.05H321.693V110.5C321.693 117.7 325.593 122.5 332.043 122.5V124H294.993V122.5C301.443 122.5 305.343 117.7 305.343 110.5V23.05ZM381.315 110.5C381.315 117.7 385.215 122.5 391.665 122.5V124H354.615V122.5C361.215 122.5 364.965 117.7 364.965 110.5V33.55C364.965 26.35 361.215 21.55 354.615 21.55V20.05H391.665V21.55C385.215 21.55 381.315 26.35 381.315 33.55V110.5ZM464.296 18.85V18.55H465.796L470.296 53.5H468.796C466.096 40.15 457.396 21.55 439.696 21.55C423.646 21.55 414.196 37 414.196 63.4C414.196 92.5 425.746 112.15 443.896 112.15C453.796 112.15 470.746 106.15 470.446 73.15L471.946 73.3C473.746 97.15 466.996 125.5 438.946 125.5C414.046 125.5 397.096 103.15 397.096 70C397.096 38.95 411.796 18.55 445.096 18.55C454.246 18.55 459.946 20.05 462.496 20.05C463.696 20.05 464.296 19.75 464.296 18.85ZM548.454 110.5C548.454 117.7 552.354 122.5 558.804 122.5V124H521.754V122.5C528.354 122.5 532.104 117.7 532.104 110.5V33.55C532.104 26.35 528.354 21.55 521.754 21.55V20.05H558.804V21.55C552.354 21.55 548.454 26.35 548.454 33.55V85L581.154 33.55C585.954 26.2 584.754 21.55 578.154 21.55V20.05H602.454V21.55C596.004 21.55 589.404 26.2 584.754 33.55L570.204 56.35L592.704 110.5C595.854 117.7 601.854 122.5 608.454 122.5V124H569.904V122.5C576.354 122.5 577.854 117.7 574.854 110.5L559.404 73.3L548.454 90.55V110.5ZM657.567 20.05H660.717L690.717 110.5C692.967 117.7 698.817 122.5 705.417 122.5V124H667.317V122.5C673.917 122.5 675.867 117.7 673.467 110.5L669.267 98.05H634.767L630.717 110.5C628.317 117.7 630.267 122.5 636.717 122.5V124H612.867V122.5C619.467 122.5 625.167 117.7 627.567 110.5L657.567 20.05ZM635.667 95.05H668.367L652.017 45.85L635.667 95.05ZM739.909 110.5C739.909 117.7 743.809 122.5 750.259 122.5V124H713.209V122.5C719.809 122.5 723.559 117.7 723.559 110.5V33.55C723.559 26.35 719.809 21.55 713.209 21.55V20.05H750.259V21.55C743.809 21.55 739.909 26.35 739.909 33.55V110.5ZM779.961 23.05C765.261 23.05 762.861 32.35 758.511 44.05H757.011L760.611 18.55H762.111C762.411 19.6 763.311 20.05 764.061 20.05H822.111L776.211 121H797.361C812.061 121 814.611 111.7 818.961 99.85H820.461L816.861 125.5H815.361C815.061 124.45 814.161 124 813.261 124H756.861L802.761 23.05H779.961ZM828.492 124V122.5C835.092 122.5 838.842 117.7 838.842 110.5V33.55C838.842 26.35 835.092 21.55 828.492 21.55V20.05H888.492C889.392 20.05 890.292 19.6 890.592 18.55H892.092L895.542 44.05H894.042C889.842 32.35 887.292 23.05 872.592 23.05H855.192V70.6H872.892C881.592 70.6 884.892 56.2 884.892 49.75H886.392V94.3H884.892C884.892 87.7 881.592 73.45 872.892 73.45H855.192V121H872.592C887.292 121 889.842 111.7 894.042 99.85H895.542L892.092 125.5H890.592C890.292 124.45 889.392 124 888.492 124H828.492ZM899.684 124V122.5C906.284 122.5 910.034 117.7 910.034 110.5V33.55C910.034 26.35 906.284 21.55 899.684 21.55V20.05H942.734C960.734 20.05 969.434 28.75 969.434 46.75C969.434 61 964.034 69.55 952.484 72.4L968.684 110.5C971.684 117.55 976.934 122.5 983.384 122.5V124H956.234L935.684 73.45H926.384V110.5C926.384 117.7 930.284 122.5 936.734 122.5V124H899.684ZM928.634 23.05H926.384V70.6H928.634C944.534 70.6 952.334 62.65 952.334 46.75C952.334 30.85 944.534 23.05 928.634 23.05Z" fill="white"/>
</svg>
